<mxfile host="app.diagrams.net" modified="2022-03-23T14:06:20.963Z" agent="5.0 (Windows NT 10.0; Win64; x64) AppleWebKit/537.36 (KHTML, like Gecko) Chrome/99.0.4844.74 Safari/537.36" etag="cq4WFy4uaVCN9EEl2q67" version="17.1.3" type="github">
  <diagram id="xfbisKgPo5yGwsmO2iI5" name="Page-1">
    <mxGraphModel dx="925" dy="536" grid="1" gridSize="10" guides="1" tooltips="1" connect="1" arrows="1" fold="1" page="1" pageScale="1" pageWidth="850" pageHeight="1100" math="0" shadow="0">
      <root>
        <mxCell id="0" />
        <mxCell id="1" parent="0" />
        <mxCell id="V43_jzV2RidBm6Wxg-L6-1" value="&lt;h3&gt;DataBricks&lt;/h3&gt;" style="rounded=0;whiteSpace=wrap;html=1;fontFamily=Tahoma;fontSize=27;fillColor=#dae8fc;strokeColor=#6c8ebf;" vertex="1" parent="1">
          <mxGeometry x="160" y="160" width="320" height="150" as="geometry" />
        </mxCell>
        <mxCell id="V43_jzV2RidBm6Wxg-L6-2" value="" style="rounded=1;whiteSpace=wrap;html=1;fontFamily=Tahoma;fontSize=27;" vertex="1" parent="1">
          <mxGeometry x="160" y="80" width="120" height="60" as="geometry" />
        </mxCell>
      </root>
    </mxGraphModel>
  </diagram>
</mxfile>
